<svg width="40" height="40" viewBox="0 0 40 40" fill="none" xmlns="http://www.w3.org/2000/svg">
<path d="M20 0C11.16 0 4 7.16373 4 16.001C4 26.501 20 40.001 20 40.001C20 40.001 36 26.501 36 16.001C36 7.16373 28.84 0 20 0Z" fill="#4CAF50"/>
<path d="M15 12C14.4477 12 14 12.4477 14 13V20C14 20.5523 14.4477 21 15 21H20V12H15Z" fill="white"/>
<path d="M25 12C25.5523 12 26 12.4477 26 13V20C26 20.5523 25.5523 21 25 21H20V12H25Z" fill="white"/>
<line x1="20" y1="11.5" x2="20" y2="21.5" stroke="#A5D6A7" stroke-width="1"/>
</svg>