<svg width="40" height="40" viewBox="0 0 40 40" fill="none" xmlns="http://www.w3.org/2000/svg">
<path d="M20 0C11.16 0 4 7.16373 4 16.001C4 26.501 20 40.001 20 40.001C20 40.001 36 26.501 36 16.001C36 7.16373 28.84 0 20 0Z" fill="#4CAF50"/>
<circle cx="20" cy="13.5" r="2.5" fill="white"/>
<path d="M20 17C18.067 17 16.5 18.567 16.5 20.5H23.5C23.5 18.567 21.933 17 20 17Z" fill="white"/>
<circle cx="15.5" cy="15.5" r="2" fill="white"/>
<path d="M15.5 18C13.8431 18 12.5 19.3431 12.5 21H18.5C18.5 19.3431 17.1569 18 15.5 18Z" fill="white"/>
<circle cx="24.5" cy="15.5" r="2" fill="white"/>
<path d="M24.5 18C22.8431 18 21.5 19.3431 21.5 21H27.5C27.5 19.3431 26.1569 18 24.5 18Z" fill="white"/>
</svg>