<svg width="40" height="40" viewBox="0 0 40 40" fill="none" xmlns="http://www.w3.org/2000/svg">
<path d="M20 0C11.16 0 4 7.16373 4 16.001C4 26.501 20 40.001 20 40.001C20 40.001 36 26.501 36 16.001C36 7.16373 28.84 0 20 0Z" fill="#4CAF50"/>
<path d="M22.3301 12.5C22.3301 11.6716 21.6575 11 20.8301 11H18.1701C16.7563 11 15.6701 12.0863 15.6701 13.5C15.6701 14.9137 16.7563 16 18.1701 16H20.3301C21.4346 16 22.3301 16.8954 22.3301 18C22.3301 19.1046 21.4346 20 20.3301 20H17.6701C16.8426 20 16.1701 20.6726 16.1701 21.5" stroke="white" stroke-width="2.5" stroke-linecap="round" stroke-linejoin="round"/>
</svg>